HIERARCHY
ROOT root
{
	OFFSET 0.000000 0.000000 0.000000
	CHANNELS 6 Xposition Yposition Zposition Zrotation Yrotation Xrotation
	JOINT lhip
	{
		OFFSET 0.058581 -0.082280 -0.017664
		CHANNELS 3 Zrotation Yrotation Xrotation
		JOINT lknee
		{
			OFFSET 0.043451 -0.386469 0.008037
			CHANNELS 3 Zrotation Yrotation Xrotation
			JOINT lankle
			{
				OFFSET -0.014790 -0.426874 -0.037428
				CHANNELS 3 Zrotation Yrotation Xrotation
				JOINT ltoe
				{
					OFFSET 0.041054 -0.060286 0.122042
					CHANNELS 3 Zrotation Yrotation Xrotation
					End Site
					{
						OFFSET 0.000000 0.000000 0.000000
					}
				}
			}
		}
	}
	JOINT rhip
	{
		OFFSET -0.060310 -0.090513 -0.013543
		CHANNELS 3 Zrotation Yrotation Xrotation
		JOINT rknee
		{
			OFFSET -0.043257 -0.383688 -0.004843
			CHANNELS 3 Zrotation Yrotation Xrotation
			JOINT rankle
			{
				OFFSET 0.019056 -0.420046 -0.034562
				CHANNELS 3 Zrotation Yrotation Xrotation
				JOINT rtoe
				{
					OFFSET -0.034840 -0.062106 0.130323
					CHANNELS 3 Zrotation Yrotation Xrotation
					End Site
					{
						OFFSET 0.000000 0.000000 0.000000
					}
				}
			}
		}
	}
	JOINT lowerback
	{
		OFFSET 0.004439 0.124404 -0.038385
		CHANNELS 3 Zrotation Yrotation Xrotation
		JOINT upperback
		{
			OFFSET 0.004488 0.137956 0.026820
			CHANNELS 3 Zrotation Yrotation Xrotation
			JOINT chest
			{
				OFFSET -0.002265 0.056032 0.002855
				CHANNELS 3 Zrotation Yrotation Xrotation
				JOINT lowerneck
				{
					OFFSET -0.013390 0.211636 -0.033468
					CHANNELS 3 Zrotation Yrotation Xrotation
					JOINT upperneck
					{
						OFFSET 0.010113 0.088937 0.050410
						CHANNELS 3 Zrotation Yrotation Xrotation
						End Site
						{
							OFFSET 0.000000 0.000000 0.000000
						}
					}
				}
				JOINT lclavicle
				{
					OFFSET 0.071702 0.114000 -0.018898
					CHANNELS 3 Zrotation Yrotation Xrotation
					JOINT lshoulder
					{
						OFFSET 0.122921 0.045205 -0.019046
						CHANNELS 3 Zrotation Yrotation Xrotation
						JOINT lelbow
						{
							OFFSET 0.255332 -0.015649 -0.022946
							CHANNELS 3 Zrotation Yrotation Xrotation
							JOINT lwrist
							{
								OFFSET 0.265709 0.012698 -0.007375
								CHANNELS 3 Zrotation Yrotation Xrotation
								End Site
								{
									OFFSET 0.000000 0.000000 0.000000
								}
							}
						}
					}
				}
				JOINT rclavicle
				{
					OFFSET -0.082954 0.112472 -0.023707
					CHANNELS 3 Zrotation Yrotation Xrotation
					JOINT rshoulder
					{
						OFFSET -0.113228 0.046853 -0.008472
						CHANNELS 3 Zrotation Yrotation Xrotation
						JOINT relbow
						{
							OFFSET -0.260127 -0.014369 -0.031269
							CHANNELS 3 Zrotation Yrotation Xrotation
							JOINT rwrist
							{
								OFFSET -0.269108 0.006794 -0.006027
								CHANNELS 3 Zrotation Yrotation Xrotation
								End Site
								{
									OFFSET 0.000000 0.000000 0.000000
								}
							}
						}
					}
				}
			}
		}
	}
}
MOTION
Frames: 11
Frame Time: 0.033333
-0.001886 0.863040 1.024881 15.304410 1.627762 94.469280 -2.875587 1.514427 -24.969887 -0.158091 26.856983 16.349729 8.129189 18.851214 -7.308322 0.000000 -0.000000 0.000000 -2.651003 -9.353215 -6.560172 -5.885210 -15.371777 31.772048 4.145846 -17.888531 -7.384620 0.000000 -0.000000 0.000000 -0.951924 3.604787 11.748865 -0.864593 -0.540317 -15.574555 -1.701595 -0.341915 0.914231 1.630205 9.049946 2.668574 -2.084140 11.961559 27.925174 -24.753404 11.331927 0.650351 -51.973975 -4.131401 6.982405 3.282919 -23.644968 10.481934 -13.057871 -12.208446 -8.115015 24.860573 -5.997430 0.693550 53.410981 9.222294 17.741067 -7.501907 29.107804 0.127584 17.963397 8.851349 -10.279214 
0.010515 0.847863 1.028302 18.527424 1.996639 94.110223 -3.753284 1.122186 -22.606510 -0.930639 24.361710 14.865170 8.939597 18.562100 -8.026718 0.000000 -0.000000 0.000000 -3.637918 -9.168669 -8.314104 -6.284392 -15.623833 38.746153 4.244121 -18.113226 -1.964743 0.000000 -0.000000 0.000000 -0.993929 2.763580 11.321953 -0.453250 -0.257866 -15.120432 -1.571799 -0.483257 0.745801 1.716808 8.533939 2.928363 -2.354817 12.301004 27.338046 -24.863129 11.368283 0.796662 -51.711554 -4.272709 7.419846 2.408392 -24.282701 11.221791 -14.257846 -12.504030 -8.170772 25.196302 -6.457641 0.500731 52.994149 8.351805 17.628877 -7.983254 28.357178 -0.936734 19.418514 8.746312 -9.431065 
0.022238 0.833612 1.030791 22.180498 2.407548 93.737962 -4.468428 0.651662 -20.254745 -1.566237 21.667278 13.475604 9.802615 18.224214 -8.460135 0.000000 -0.000000 0.000000 -4.351501 -8.767750 -10.544268 -6.824003 -15.433286 45.546269 3.302458 -18.327866 5.621110 0.000000 -0.000000 0.000000 -1.098396 1.978626 11.089593 -0.034633 -0.176608 -14.591677 -1.314257 -0.928897 0.465052 1.733579 7.821812 3.166208 -2.614154 12.759535 26.580934 -24.933908 11.098872 1.104990 -51.268240 -4.528810 7.999439 1.594623 -25.338842 12.005481 -14.404070 -12.908455 -8.154032 25.458131 -6.740680 0.365398 52.503512 7.726237 17.500185 -8.191861 27.173566 -2.193158 19.867142 8.752479 -8.914053 
0.033791 0.820202 1.032230 26.071672 2.749156 93.396025 -4.967242 0.119929 -18.081217 -2.235704 18.874399 12.493111 10.107996 17.949299 -8.874006 0.000000 -0.000000 0.000000 -4.654398 -7.907026 -12.770295 -6.846995 -14.353410 50.932269 1.970631 -18.090961 8.893125 0.000000 -0.000000 0.000000 -1.111331 1.271902 10.946935 0.273716 0.028838 -14.097402 -1.273223 -1.327750 0.308987 1.911994 7.596477 3.266336 -2.838783 12.674783 25.910469 -24.853868 10.751059 1.104507 -50.948679 -5.149267 8.668758 0.927333 -26.384030 13.261679 -15.562517 -13.220689 -8.211323 25.718095 -7.222389 0.118471 52.233775 7.180605 17.261246 -8.508318 25.762765 -2.817632 20.717308 8.606965 -8.849074 
0.044669 0.807864 1.033391 30.148382 3.262531 93.160473 -5.101479 -0.217017 -16.125908 -2.811546 15.875860 11.739533 9.605013 17.555188 -9.288944 0.000000 -0.000000 0.000000 -4.301756 -6.660167 -15.063751 -6.038537 -12.572958 54.324297 3.127635 -16.636782 5.358733 0.000000 -0.000000 0.000000 -0.956776 0.674292 10.972061 0.598267 0.218860 -13.709079 -1.311373 -1.631755 0.138967 2.341762 7.907507 3.453295 -3.125758 12.005528 25.285232 -24.899004 10.054599 1.109656 -50.748480 -5.968433 9.253980 1.171587 -27.387319 12.999062 -15.724802 -13.209867 -8.167971 26.004448 -7.372533 -0.010378 51.938851 6.469825 16.809149 -8.811192 24.222431 -3.074110 21.238507 8.256092 -8.713416 
0.054853 0.796644 1.034796 34.609989 3.758232 93.326994 -5.282428 -0.395641 -14.564712 -3.085206 12.337172 10.940410 9.234893 16.911052 -9.442505 0.000000 -0.000000 0.000000 -3.515695 -5.046691 -17.901738 -4.978223 -10.808905 56.152862 4.434086 -14.939095 3.856721 0.000000 -0.000000 0.000000 -0.889498 -0.282473 11.120131 0.905566 0.395471 -13.819706 -1.187051 -1.760437 -0.057141 2.836680 8.212397 3.514558 -3.361503 11.949887 24.656881 -24.845896 9.831090 0.675051 -50.978351 -6.942831 9.936848 1.533490 -27.985608 12.486497 -14.566448 -13.238758 -8.617123 25.719937 -7.685951 -0.080890 52.177537 5.911545 16.694077 -8.598816 22.451405 -3.339498 20.426401 8.268241 -9.260137 
0.066357 0.785743 1.036662 39.088681 3.840188 93.126458 -5.734668 -0.677868 -12.333506 -3.402271 9.031106 9.932192 8.650744 16.162298 -9.723721 0.000000 -0.000000 0.000000 -3.435769 -3.505806 -20.076187 -4.417253 -9.875641 56.516147 5.191536 -14.015653 1.159936 0.000000 -0.000000 0.000000 -0.847214 -1.053408 11.379331 0.881544 0.477244 -13.536272 -1.211076 -1.883312 -0.018844 2.923341 9.184685 3.345751 -3.058018 12.254854 23.607133 -24.693762 9.250148 0.220170 -51.438306 -7.876875 10.487174 2.414091 -28.654739 10.921709 -13.196999 -13.220142 -9.399084 25.540936 -7.621905 -0.251103 52.300518 5.158883 16.627643 -8.596566 20.980294 -3.251338 20.877433 7.958780 -9.362438 
0.077081 0.774716 1.038350 43.711229 4.004711 92.964757 -5.850223 -0.763441 -10.324180 -3.584626 5.755780 9.335770 7.913439 15.259374 -10.029596 0.000000 -0.000000 0.000000 -2.994361 -1.804774 -22.111248 -4.562637 -9.219370 55.363872 5.256345 -14.288188 -1.414722 0.000000 -0.000000 0.000000 -0.918632 -1.804396 12.021417 0.825417 0.710184 -13.742395 -1.016125 -2.027532 0.193558 2.992163 10.247822 3.070600 -2.713460 12.862087 22.365090 -24.476963 8.752668 -0.445507 -51.997679 -8.952818 11.047392 2.745018 -29.008690 10.111460 -11.669300 -13.331632 -10.146191 25.248464 -7.742491 -0.576213 52.393535 4.240574 16.796202 -8.295353 20.106229 -2.835613 20.522414 7.863800 -9.510494 
0.087655 0.763985 1.039274 48.246320 4.154789 93.079465 -5.746591 -1.100079 -8.764421 -3.732853 2.815833 8.991072 7.340870 14.285242 -10.471890 0.000000 -0.000000 0.000000 -2.558302 -0.171619 -24.308015 -4.506759 -8.409174 52.890249 5.181006 -14.310238 -3.213879 0.000000 -0.000000 0.000000 -0.857772 -2.468208 12.365221 0.731165 0.859513 -13.638603 -0.820290 -2.272123 0.142698 3.115597 11.587448 2.876011 -2.650846 14.227014 20.633728 -24.393004 8.045732 -0.671156 -52.372716 -9.888930 11.536858 3.350776 -29.572174 9.339119 -11.168872 -13.517032 -11.006097 24.759303 -7.716510 -0.410534 52.556694 3.617095 17.002337 -8.176318 19.722784 -2.286785 20.617382 7.967809 -10.146374 
0.098582 0.753084 1.039693 52.832041 4.351137 93.223235 -5.479001 -1.345563 -7.255420 -3.685449 -0.148967 8.731502 6.418932 13.209467 -11.006971 0.000000 -0.000000 0.000000 -1.985145 1.180458 -26.176831 -4.449931 -7.630408 49.017984 5.316676 -13.979462 -4.667623 0.000000 -0.000000 0.000000 -0.804441 -3.056805 12.823580 0.616493 0.959634 -13.471384 -0.540594 -2.572806 0.098750 3.077769 13.239027 2.647598 -2.490522 15.652821 18.418936 -24.398586 7.319120 -0.939398 -52.640898 -10.678260 12.034112 3.766825 -30.197081 8.627413 -10.197386 -13.667718 -11.221262 24.508146 -7.740751 -0.517594 52.398904 2.921760 17.193098 -7.927185 19.896838 -1.890349 20.225874 8.043944 -10.598160 
0.109787 0.742235 1.039382 57.168749 4.427250 93.549580 -5.045285 -1.544841 -6.013578 -3.769031 -2.755805 8.489895 5.810746 11.926636 -11.470279 0.000000 -0.000000 0.000000 -1.564950 2.427418 -27.998846 -4.080031 -6.727042 43.920293 5.597101 -13.060010 -5.282492 0.000000 -0.000000 0.000000 -0.784661 -3.461018 13.073635 0.427504 1.022806 -13.116795 -0.315624 -2.823292 -0.088830 3.126363 15.348538 2.612476 -2.337909 17.473979 15.677351 -24.270314 6.667417 -1.198937 -52.854522 -11.268926 12.622414 3.855156 -30.747174 8.561207 -9.864182 -13.776191 -11.519875 24.169711 -7.851266 -0.477842 52.492132 2.523396 17.433847 -7.925187 20.262991 -1.533925 19.790369 8.018108 -11.262526 
